<?xml version="1.0" encoding="UTF-8" standalone="no"?>
<svg
   xmlns:dc="http://purl.org/dc/elements/1.1/"
   xmlns:cc="http://creativecommons.org/ns#"
   xmlns:rdf="http://www.w3.org/1999/02/22-rdf-syntax-ns#"
   xmlns:svg="http://www.w3.org/2000/svg"
   xmlns="http://www.w3.org/2000/svg"
   xmlns:sodipodi="http://sodipodi.sourceforge.net/DTD/sodipodi-0.dtd"
   xmlns:inkscape="http://www.inkscape.org/namespaces/inkscape"
   width="214pt"
   height="110pt"
   viewBox="0 0 214 110"
   version="1.1"
   id="svg3466"
   inkscape:version="0.91 r13725"
   sodipodi:docname="logo-edit.svg">
  <metadata
     id="metadata3556">
    <rdf:RDF>
      <cc:Work
         rdf:about="">
        <dc:format>image/svg+xml</dc:format>
        <dc:type
           rdf:resource="http://purl.org/dc/dcmitype/StillImage" />
        <dc:title></dc:title>
      </cc:Work>
    </rdf:RDF>
  </metadata>
  <defs
     id="defs3554" />
  <sodipodi:namedview
     pagecolor="#ffffff"
     bordercolor="#666666"
     borderopacity="1"
     objecttolerance="10"
     gridtolerance="10"
     guidetolerance="10"
     inkscape:pageopacity="0"
     inkscape:pageshadow="2"
     inkscape:window-width="1855"
     inkscape:window-height="1056"
     id="namedview3552"
     showgrid="false"
     inkscape:zoom="4.3140187"
     inkscape:cx="133.75"
     inkscape:cy="68.75"
     inkscape:window-x="65"
     inkscape:window-y="24"
     inkscape:window-maximized="1"
     inkscape:current-layer="svg3466" />
  <path
     d="M 199.16211 2.2128906 C 199.64961 2.9253906 200.62578 4.3617188 201.11328 5.0742188 C 197.71328 8.0867188 196.775 12.712891 194.4375 16.462891 C 192.1375 12.800391 189.225 9.4257812 185 7.9882812 C 185.3875 10.163281 185.81211 12.336719 186.22461 14.511719 C 183.07461 14.824219 180.025 15.736719 177.6875 17.949219 C 176.4125 18.161719 175.1375 18.387109 173.875 18.599609 C 174.15 19.212109 174.68789 20.45 174.96289 21.0625 C 174.78789 21.9625 174.44961 23.762891 174.28711 24.650391 C 172.84961 25.612891 171.42422 26.612109 170.01172 27.599609 C 171.68672 28.262109 173.37578 28.937109 175.05078 29.599609 C 175.81328 29.887109 177.31172 30.474219 178.07422 30.761719 C 177.59922 32.324219 177.15 33.886719 176.6875 35.449219 C 175.8 35.149219 174.00078 34.55 173.11328 34.25 C 172.28828 37.375 170.57578 40.099219 168.55078 42.574219 C 172.58828 42.786719 176.63828 42.7375 180.67578 42.5 C 180.20078 43.2125 179.25039 44.6625 178.77539 45.375 C 183.17539 45.2 186.89961 42.825781 188.28711 38.613281 C 186.42461 38.588281 184.57461 38.549609 182.72461 38.537109 C 182.87461 37.687109 183.18789 36.000391 183.33789 35.150391 C 185.08789 36.075391 186.84961 37.025391 188.59961 37.962891 C 187.02461 36.012891 185.71172 33.475391 189.88672 33.650391 C 187.46172 30.837891 185.64922 27.5875 183.94922 24.3125 L 184.36328 24.025391 C 186.27578 26.562891 188.16211 29.125391 190.09961 31.650391 C 190.18711 31.037891 190.38711 29.788281 190.47461 29.175781 C 191.08711 29.500781 192.29961 30.150391 192.91211 30.462891 C 194.79961 31.350391 194.72461 27.8625 194.91211 26.8125 C 195.56211 27.2875 196.83711 28.237891 197.47461 28.712891 C 197.98711 25.400391 198.31211 22.062891 198.16211 18.712891 C 198.57461 21.625391 199.075 24.536719 199.5625 27.449219 C 203.8 26.699219 208.03828 27.425 212.17578 28.375 C 212.86328 29.1 214.25 30.549219 214.9375 31.261719 C 217.7 27.961719 220.48789 24.662891 223.58789 21.650391 C 222.92539 21.337891 221.6 20.7 220.9375 20.375 C 220.9875 19.45 221.10039 17.587109 221.15039 16.662109 C 220.20039 15.712109 219.25 14.7625 218.3125 13.8125 C 218.625 12.4625 219.25 9.7492188 219.5625 8.3867188 C 215.025 12.049219 209.90078 14.736719 204.86328 17.574219 C 204.20078 20.074219 203.95078 22.662891 203.48828 25.212891 C 203.11328 22.575391 202.8125 19.924219 202.5625 17.261719 C 203.425 16.824219 205.14922 15.962891 206.01172 15.525391 C 206.22422 10.175391 202.58711 5.8878906 199.16211 2.2128906 z M 182.875 16.525391 C 184.0875 17.587891 185.36172 18.574219 186.57422 19.636719 C 187.19922 19.599219 188.42578 19.536719 189.05078 19.511719 C 190.32578 22.674219 191.53789 25.875391 192.33789 29.212891 C 190.81289 26.787891 189.78789 24.112891 188.77539 21.462891 C 188.53789 21.487891 188.03828 21.550391 187.80078 21.587891 C 187.52578 21.987891 186.99961 22.799219 186.72461 23.199219 C 185.34961 20.911719 184.33828 17.925 181.17578 17.8125 C 181.60078 17.4875 182.45 16.850391 182.875 16.525391 z "
     transform="scale(0.8,0.8)"
     id="path3470"
     style="fill:#ffc52f;fill-opacity:1" />
  <path
     fill="#ffc838"
     d=" M 179.40 18.71 C 180.06 16.93 181.03 15.29 182.26 13.85 C 182.08 16.20 182.64 18.93 181.12 20.97 C 179.20 23.45 176.56 25.20 174.20 27.22 C 173.82 26.72 173.06 25.72 172.68 25.21 C 174.76 22.88 177.04 20.75 179.40 18.71 Z"
     id="path3474" />
  <path
     fill="#5e2a2a"
     d=" M 14.56 17.07 C 16.15 17.07 17.73 17.06 19.31 17.05 C 19.34 29.02 19.33 41.00 19.33 52.98 C 19.65 60.98 12.99 68.59 5.01 69.22 C 3.86 68.38 2.85 67.39 1.79 66.44 C 5.89 65.17 10.01 63.10 12.34 59.33 C 14.19 56.62 14.63 53.25 14.57 50.04 C 14.54 39.05 14.53 28.06 14.56 17.07 Z"
     id="path3476" />
  <path
     fill="#ffd770"
     d=" M 172.35 18.46 C 174.23 18.73 173.04 22.63 171.31 21.89 C 170.47 20.81 171.14 18.95 172.35 18.46 Z"
     id="path3478" />
  <path
     fill="#ffc62f"
     d=" M 175.41 27.72 C 178.32 24.99 181.83 22.87 184.17 19.56 C 185.55 20.26 186.92 20.97 188.30 21.68 C 187.42 22.35 186.54 23.02 185.62 23.62 L 185.19 23.87 C 185.21 26.92 185.20 29.98 184.92 33.01 C 183.21 33.20 181.49 33.37 179.77 33.53 L 179.65 37.43 C 178.71 35.72 177.76 34.01 176.83 32.29 C 178.26 31.84 179.69 31.36 181.11 30.88 C 179.24 30.86 177.36 30.82 175.49 30.77 C 177.11 28.09 180.41 27.54 183.09 26.42 C 180.60 27.19 178.03 27.71 175.41 27.72 Z"
     id="path3480" />
  <path
     d="M 51.023438 28.669922 C 49.160559 28.64101 47.294922 28.884766 45.488281 29.4375 C 36.300781 31.4 29.599219 40.600391 30.699219 49.962891 C 30.924219 60.387891 40.987109 68.811719 51.224609 68.074219 C 62.024609 68.399219 71.862109 58.486719 70.662109 47.574219 C 71.020703 36.953516 61.082983 28.826044 51.023438 28.669922 z M 50.587891 33.603516 C 57.894122 33.659018 65.021875 39.762891 65.011719 47.400391 C 66.199219 56.537891 57.011719 65.049609 48.011719 63.037109 C 40.011719 61.599609 34.649219 52.850391 36.636719 45.025391 C 37.661719 40.350391 41.125391 36.337891 45.587891 34.587891 C 47.207422 33.901172 48.901837 33.590707 50.587891 33.603516 z "
     transform="scale(0.8,0.8)"
     id="path3482"
     style="fill:#5e2a2a;fill-opacity:1" />
  <path
     fill="#5e2a2a"
     d=" M 128.98 24.94 C 132.17 22.71 136.42 22.40 140.04 23.68 C 140.65 23.91 141.85 24.38 142.46 24.61 C 142.08 25.86 141.72 27.11 141.35 28.36 C 140.64 28.12 139.20 27.64 138.49 27.40 C 135.32 25.80 130.65 27.06 130.11 30.95 C 131.09 35.15 136.00 35.54 139.17 37.34 C 139.91 37.85 140.63 38.38 141.34 38.94 C 141.75 39.28 142.58 39.96 142.99 40.30 C 143.77 42.65 144.19 45.10 144.48 47.55 L 143.84 48.66 C 143.18 49.74 142.52 50.83 141.83 51.90 C 137.01 55.70 129.97 54.98 124.87 52.10 C 124.88 50.64 124.88 49.18 124.88 47.71 C 128.27 49.61 132.31 51.55 136.25 50.24 C 139.04 49.41 140.66 45.72 138.81 43.30 C 136.21 39.75 130.99 40.07 128.13 36.79 C 124.91 33.60 125.31 27.62 128.98 24.94 Z"
     id="path3484" />
  <path
     fill="#5e2a2a"
     d=" M 61.71 23.74 C 63.23 23.74 64.76 23.74 66.29 23.74 C 66.28 28.09 66.26 32.45 66.32 36.80 C 71.56 36.84 76.80 36.84 82.03 36.79 C 82.06 32.45 82.08 28.11 82.00 23.77 C 83.51 23.75 85.01 23.74 86.52 23.73 C 86.48 33.84 86.51 43.94 86.50 54.05 C 85.02 54.05 83.53 54.05 82.05 54.04 C 82.06 49.60 82.05 45.15 82.06 40.71 C 76.80 40.68 71.53 40.66 66.28 40.73 C 66.28 45.17 66.28 49.61 66.28 54.05 C 64.76 54.05 63.24 54.05 61.72 54.05 C 61.71 43.94 61.73 33.84 61.71 23.74 Z"
     id="path3486"
     style="fill:#5e2a2a;fill-opacity:1" />
  <path
     fill="#5e2a2a"
     d=" M 92.92 23.53 C 94.34 23.86 96.20 23.45 97.17 24.82 C 103.41 31.51 109.47 38.37 115.68 45.08 C 115.75 37.96 115.70 30.85 115.70 23.73 C 117.17 23.74 118.65 23.74 120.13 23.74 C 120.06 34.19 120.24 44.64 120.04 55.09 C 115.99 52.45 113.21 48.41 109.91 44.97 C 105.62 40.42 101.53 35.70 97.33 31.07 C 97.23 38.73 97.32 46.39 97.29 54.05 C 95.83 54.05 94.37 54.05 92.92 54.05 C 92.92 43.87 92.91 33.70 92.92 23.53 Z"
     id="path3488" />
  <path
     fill="#5f2b2b"
     d=" M 152.32 31.86 C 154.32 23.16 166.85 20.98 172.34 27.56 C 173.98 28.82 174.00 30.78 173.73 32.66 C 174.14 32.72 174.96 32.86 175.36 32.92 C 174.87 33.34 173.89 34.18 173.40 34.60 C 172.94 33.61 172.55 32.59 172.16 31.57 C 171.76 31.04 171.36 30.51 170.96 29.98 C 169.04 26.86 165.98 24.79 162.21 25.11 C 162.30 26.99 162.35 28.87 162.57 30.73 C 162.96 30.98 163.73 31.48 164.12 31.73 C 166.24 33.43 165.76 35.73 164.59 37.89 C 165.18 38.48 165.78 39.08 166.39 39.66 C 167.49 39.53 169.71 39.28 170.81 39.15 C 169.86 40.27 169.01 41.49 167.91 42.46 C 167.35 42.49 166.25 42.54 165.70 42.56 C 165.37 42.79 164.71 43.24 164.38 43.47 C 163.76 43.56 162.50 43.74 161.88 43.83 C 162.09 44.65 162.50 46.29 162.71 47.11 C 160.90 46.72 159.08 46.33 157.27 45.96 C 158.11 45.37 158.97 44.79 159.83 44.22 C 158.05 43.40 156.41 42.32 155.00 40.95 C 155.09 41.48 155.26 42.55 155.34 43.08 C 151.94 41.30 152.31 37.10 151.58 33.93 C 152.11 33.85 153.17 33.70 153.70 33.62 L 153.67 34.95 C 154.01 34.71 154.67 34.23 155.00 33.99 C 154.09 33.29 153.19 32.60 152.32 31.86 Z"
     id="path3490" />
  <path
     fill="#5e2a2a"
     d=" M 185.19 23.87 L 185.62 23.62 C 186.38 23.67 187.92 23.78 188.68 23.83 C 195.02 30.96 201.55 37.91 207.87 45.06 C 207.91 37.97 207.85 30.88 207.87 23.79 C 209.34 23.79 210.82 23.78 212.30 23.78 C 212.19 34.27 212.49 44.77 212.14 55.26 C 204.14 47.78 197.18 39.24 189.76 31.19 C 189.76 38.81 189.76 46.43 189.76 54.04 C 188.24 54.04 186.71 54.04 185.19 54.04 C 185.19 53.49 185.18 52.38 185.18 51.83 L 185.19 50.90 C 185.19 50.24 185.18 48.92 185.18 48.26 C 185.17 47.71 185.16 46.60 185.16 46.05 C 185.16 45.67 185.17 44.90 185.17 44.52 C 185.16 44.06 185.14 43.14 185.13 42.68 C 185.11 42.14 185.05 41.07 185.03 40.54 L 184.93 39.38 C 184.69 37.26 184.66 35.13 184.92 33.01 C 185.20 29.98 185.21 26.92 185.19 23.87 Z"
     id="path3492" />
  <path
     fill="#7c5151"
     d=" M 162.21 25.11 C 165.98 24.79 169.04 26.86 170.96 29.98 C 170.05 30.56 169.15 31.14 168.24 31.72 C 169.21 31.70 171.13 31.66 172.09 31.65 C 171.07 32.81 170.05 33.97 169.03 35.12 C 168.16 36.64 167.28 38.16 166.39 39.66 C 165.78 39.08 165.18 38.48 164.59 37.89 C 165.76 35.73 166.24 33.43 164.12 31.73 C 164.15 30.10 163.64 29.77 162.57 30.73 C 162.35 28.87 162.30 26.99 162.21 25.11 Z"
     id="path3494" />
  <path
     fill="#987777"
     d=" M 162.57 30.73 C 163.64 29.77 164.15 30.10 164.12 31.73 C 163.73 31.48 162.96 30.98 162.57 30.73 Z"
     id="path3498" />
  <path
     fill="#5e2a2a"
     d=" M 170.96 29.98 C 171.36 30.51 171.76 31.04 172.16 31.57 C 172.55 32.59 172.94 33.61 173.40 34.60 L 174.97 35.56 C 174.74 37.04 174.51 38.52 174.34 40.01 C 172.63 44.53 168.10 46.53 163.71 47.54 C 163.75 46.52 163.81 45.51 163.87 44.49 C 165.31 44.00 166.66 43.33 167.91 42.46 C 169.01 41.49 169.86 40.27 170.81 39.15 C 169.71 39.28 167.49 39.53 166.39 39.66 C 167.28 38.16 168.16 36.64 169.03 35.12 C 170.05 33.97 171.07 32.81 172.09 31.65 C 171.13 31.66 169.21 31.70 168.24 31.72 C 169.15 31.14 170.05 30.56 170.96 29.98 Z"
     id="path3500" />
  <path
     fill="#7b5050"
     d=" M 163.17 34.18 C 164.80 33.68 165.35 34.24 164.82 35.86 C 163.19 36.36 162.64 35.80 163.17 34.18 Z"
     id="path3502" />
  <path
     fill="#ffc52f"
     d=" M 139.17 37.34 C 142.51 35.97 146.29 36.69 149.53 34.93 C 148.85 43.57 157.79 49.79 165.76 49.49 C 167.35 48.83 168.96 48.20 170.57 47.58 C 171.33 46.95 172.09 46.31 172.86 45.68 C 174.22 48.41 175.62 51.11 177.00 53.84 C 176.45 54.10 175.34 54.64 174.79 54.91 C 174.84 55.72 174.93 57.35 174.98 58.16 C 173.08 58.12 171.19 58.12 169.30 58.11 C 168.66 56.62 168.01 55.13 167.37 53.64 C 167.09 53.55 166.54 53.36 166.26 53.27 C 166.88 54.88 167.47 56.50 168.16 58.09 C 165.44 58.07 162.71 58.08 159.99 58.13 C 160.57 55.78 160.96 53.38 161.36 51.00 C 160.07 53.33 158.93 55.74 157.85 58.17 C 156.40 58.17 154.95 58.16 153.50 58.15 C 153.84 56.72 154.20 55.30 154.58 53.88 C 152.75 55.06 150.85 56.13 148.84 56.96 C 149.92 55.04 151.16 53.21 152.33 51.34 C 149.48 52.91 146.54 54.28 143.59 55.63 C 142.76 54.77 141.93 53.91 141.11 53.05 L 141.83 51.90 C 142.52 50.83 143.18 49.74 143.84 48.66 C 145.74 47.01 147.78 45.51 149.57 43.74 C 149.10 43.19 148.57 42.70 147.97 42.28 L 149.29 43.73 C 147.67 44.97 146.00 46.18 144.48 47.55 C 144.19 45.10 143.77 42.65 142.99 40.30 C 145.11 39.50 147.14 38.50 149.15 37.47 C 146.53 37.90 143.93 38.40 141.34 38.94 C 140.63 38.38 139.91 37.85 139.17 37.34 Z"
     id="path3504" />
  <path
     fill="#cdbdbd"
     d=" M 159.30 35.64 C 161.43 37.14 163.40 38.84 165.36 40.56 C 162.48 40.52 159.65 40.05 156.93 39.12 C 157.85 38.92 158.77 38.73 159.69 38.54 C 159.60 37.82 159.40 36.37 159.30 35.64 Z"
     id="path3506" />
  <path
     fill="#ffc52f"
     d=" M 177.89 37.13 C 180.28 37.72 182.75 38.18 184.93 39.38 L 185.03 40.54 C 182.94 39.95 180.82 39.46 178.70 38.98 C 180.85 40.20 183.03 41.38 185.13 42.68 C 185.14 43.14 185.16 44.06 185.17 44.52 C 183.76 43.74 182.65 43.96 181.85 45.16 C 182.59 46.40 183.69 46.70 185.16 46.05 C 185.16 46.60 185.17 47.71 185.18 48.26 C 184.54 48.35 183.27 48.55 182.63 48.64 C 183.10 49.78 183.95 50.53 185.19 50.90 L 185.18 51.83 C 183.93 52.13 182.67 52.38 181.41 52.59 C 181.75 53.60 182.08 54.61 182.41 55.62 C 178.65 52.86 175.68 49.14 173.49 45.05 C 174.44 42.44 176.41 44.30 178.03 45.03 C 177.19 44.07 176.30 43.16 175.47 42.19 C 176.28 40.51 177.10 38.83 177.89 37.13 Z"
     id="path3510" />
  <path
     fill="#ffe299"
     d=" M 181.85 45.16 C 182.65 43.96 183.76 43.74 185.17 44.52 C 185.17 44.90 185.16 45.67 185.16 46.05 C 183.69 46.70 182.59 46.40 181.85 45.16 Z"
     id="path3516" />
  <path
     fill="#5e2a2a"
     d=" M 28.77 60.77 C 34.28 56.67 41.84 56.83 48.02 59.25 C 47.72 60.57 47.42 61.88 47.12 63.20 C 42.13 60.85 35.74 60.50 31.31 64.25 C 25.74 68.64 25.79 78.14 31.44 82.44 C 36.14 86.13 42.71 85.50 47.96 83.43 C 47.56 84.91 47.17 86.39 46.79 87.87 C 40.94 89.84 34.09 89.55 28.95 85.88 C 20.63 80.39 20.56 66.39 28.77 60.77 Z"
     id="path3524" />
  <path
     d="M 83.177734 71.90625 C 81.321875 71.918555 79.46875 72.161719 77.6875 72.636719 C 65.9125 75.211719 59.974609 89.411719 64.974609 100.01172 C 69.749609 110.89922 84.786719 114.58672 94.511719 108.13672 C 104.76172 102.21172 106.52539 86.300781 98.150391 78.050781 C 94.344141 73.916406 88.745312 71.869336 83.177734 71.90625 z M 83.712891 76.722656 C 90.72041 76.944995 97.301172 82.839453 97.662109 90.025391 C 98.799609 98.125391 92.061719 106.38672 83.761719 106.32422 C 76.986719 106.79922 70.549219 101.54922 69.261719 94.949219 C 67.236719 87.149219 72.661719 78.338281 80.699219 76.988281 C 81.700781 76.775781 82.711816 76.690894 83.712891 76.722656 z "
     transform="scale(0.8,0.8)"
     id="path3526"
     style="fill:#5e2a2a;fill-opacity:1" />
  <path
     fill="#5e2a2a"
     d=" M 87.88 58.16 C 89.34 58.14 90.81 58.12 92.28 58.09 C 92.33 64.06 92.25 70.03 92.28 76.00 C 92.28 78.82 92.87 82.12 95.47 83.73 C 99.76 86.59 107.44 84.84 108.04 79.06 C 108.53 72.11 108.10 65.13 108.24 58.16 C 109.71 58.16 111.18 58.15 112.66 58.15 C 112.61 64.79 112.75 71.43 112.62 78.06 C 112.59 82.04 110.50 86.10 106.71 87.67 C 100.23 90.89 90.13 88.74 88.25 80.94 C 87.40 73.40 88.10 65.75 87.88 58.16 Z"
     id="path3528" />
  <path
     fill="#5e2a2a"
     d=" M 118.96 58.16 C 119.72 58.14 121.26 58.12 122.03 58.11 C 128.70 65.15 135.16 72.39 141.64 79.61 C 141.67 72.45 141.62 65.29 141.66 58.13 C 143.13 58.14 144.61 58.14 146.08 58.13 C 146.04 68.64 146.18 79.14 146.01 89.65 C 142.85 87.63 140.69 84.51 138.12 81.85 C 133.14 76.55 128.35 71.07 123.44 65.70 C 123.45 73.29 123.45 80.87 123.46 88.46 C 121.96 88.45 120.46 88.45 118.95 88.45 C 118.95 78.35 118.95 68.25 118.96 58.16 Z"
     id="path3530" />
  <path
     fill="#5e2a2a"
     d=" M 149.65 58.12 C 150.93 58.14 152.21 58.15 153.50 58.15 C 154.95 58.16 156.40 58.17 157.85 58.17 C 158.38 58.16 159.46 58.14 159.99 58.13 C 162.71 58.08 165.44 58.07 168.16 58.09 L 169.30 58.11 C 171.19 58.12 173.08 58.12 174.98 58.16 C 176.52 58.18 178.07 58.17 179.62 58.18 C 182.64 62.42 185.66 66.66 188.62 70.94 C 191.50 66.65 194.55 62.48 197.50 58.24 C 199.11 58.18 200.71 58.12 202.33 58.07 C 198.61 63.76 194.11 68.96 190.74 74.85 C 190.46 79.39 190.72 83.94 190.64 88.48 C 189.13 88.46 187.62 88.44 186.11 88.41 C 186.11 84.25 186.25 80.08 186.12 75.92 C 186.24 74.29 185.06 73.04 184.25 71.77 C 181.16 67.56 178.21 63.24 175.15 59.00 C 174.91 59.05 174.43 59.15 174.19 59.20 C 173.96 59.90 173.49 61.30 173.26 62.01 C 170.15 62.03 167.04 62.03 163.94 62.07 C 163.95 70.85 163.90 79.63 163.96 88.42 C 162.46 88.44 160.96 88.46 159.46 88.48 C 159.44 79.66 159.51 70.85 159.43 62.03 C 156.16 62.03 152.88 62.03 149.61 62.04 C 149.62 60.73 149.63 59.43 149.65 58.12 Z"
     id="path3532" />
  <path
     fill="#b12d3a"
     d=" M 99.48 96.01 C 101.25 95.99 103.02 95.98 104.79 95.99 C 104.36 96.47 103.49 97.44 103.06 97.93 C 103.12 98.82 103.26 100.62 103.32 101.51 C 105.25 100.36 107.56 98.44 106.27 95.94 C 107.71 95.96 109.15 95.98 110.59 96.00 C 109.00 97.77 107.51 99.61 106.09 101.52 C 107.56 103.82 109.10 106.09 110.61 108.38 C 106.80 108.36 106.25 103.94 103.94 101.76 C 103.08 103.05 103.17 104.66 103.01 106.14 C 103.60 106.60 104.78 107.53 105.37 108.00 C 103.39 108.02 101.42 108.06 99.45 108.02 C 99.97 107.53 101.00 106.55 101.51 106.05 C 101.54 103.31 101.54 100.57 101.52 97.84 C 101.01 97.38 99.99 96.46 99.48 96.01 Z"
     id="path3536"
     style="fill:#b53642;fill-opacity:1" />
  <path
     d="M 151.26172 119.96289 C 148.69922 124.86289 147.88789 130.57539 144.52539 135.08789 C 146.36289 135.08789 148.20078 135.09961 150.05078 135.09961 C 149.53828 133.52461 149.06289 131.93789 148.65039 130.33789 C 150.83789 130.15039 153.05 130.03828 155.25 129.92578 C 155.2875 131.70078 155.05078 133.43789 154.55078 135.15039 C 156.38828 135.11289 158.22422 135.10039 160.07422 135.08789 C 156.39922 130.77539 155.73711 124.96289 153.28711 120.02539 C 152.78711 120.01289 151.77422 119.97539 151.26172 119.96289 z M 152.02539 122.5625 C 153.01289 124.525 153.73789 126.60039 154.33789 128.71289 C 153.23789 128.66289 151.04922 128.56172 149.94922 128.51172 C 150.61172 126.51172 151.31289 124.5375 152.02539 122.5625 z "
     transform="scale(0.8,0.8)"
     id="path3538"
     style="fill:#b53642;fill-opacity:1" />
  <path
     fill="#b53642"
     d=" M 133.13 96.00 C 134.06 96.00 135.91 95.99 136.84 95.98 C 138.83 98.95 140.82 101.93 142.96 104.80 C 142.98 102.44 142.99 100.09 143.00 97.73 C 142.48 97.30 141.43 96.43 140.91 96.00 C 142.77 95.99 144.63 95.99 146.50 96.00 C 146.08 96.49 145.23 97.46 144.80 97.94 C 144.79 101.50 144.82 105.05 144.66 108.60 C 140.95 106.61 139.53 102.30 136.88 99.23 C 136.87 101.47 136.89 103.71 136.91 105.94 C 137.33 106.47 138.17 107.52 138.60 108.04 C 136.76 108.05 134.93 108.05 133.09 108.05 C 133.56 107.55 134.48 106.56 134.94 106.07 C 134.94 103.33 134.95 100.60 134.97 97.87 C 134.51 97.40 133.59 96.47 133.13 96.00 Z"
     id="path3540"
     style="fill:#b53642;fill-opacity:1" />
  <path
     fill="#af2633"
     d=" M 152.92 99.94 C 151.28 94.82 161.23 93.99 160.48 99.44 C 159.49 98.78 158.49 98.13 157.49 97.48 C 156.12 96.31 154.85 98.42 153.75 98.96 C 155.94 101.05 160.48 101.38 160.69 104.97 C 160.31 109.77 151.09 109.16 152.74 103.94 C 154.08 104.78 154.92 107.25 156.90 106.74 C 158.14 106.70 159.25 105.45 158.99 104.18 C 157.17 102.52 154.02 102.24 152.92 99.94 Z"
     id="path3542"
     style="fill:#b53642;fill-opacity:1" />
  <path
     d="M 216.36328 119.98828 C 215.83828 119.98828 214.77578 119.99922 214.23828 120.01172 C 211.90078 124.97422 211.01211 130.59961 207.72461 135.09961 C 209.66211 135.09961 211.58711 135.10078 213.53711 135.11328 C 213.09961 134.43828 212.23828 133.08711 211.80078 132.41211 C 212.08828 128.51211 216.38828 130.5 218.92578 130.25 C 218.43828 131.875 217.95078 133.5125 217.42578 135.125 C 219.25078 135.1125 221.08711 135.08672 222.91211 135.07422 C 219.73711 130.49922 218.75078 124.92578 216.36328 119.98828 z M 215.34961 122.5625 C 216.08711 124.5125 216.82578 126.46328 217.55078 128.42578 C 216.46328 128.45078 214.28789 128.51211 213.21289 128.53711 C 213.88789 126.53711 214.59961 124.5375 215.34961 122.5625 z "
     transform="scale(0.8,0.8)"
     id="path3544"
     style="fill:#b53642;fill-opacity:1" />
  <path
     fill="#b9404c"
     d=" M 184.15 98.93 C 184.64 94.31 192.45 94.70 192.44 99.45 C 190.88 98.71 189.42 97.77 187.86 97.04 C 186.62 97.38 184.95 99.41 186.86 100.07 C 188.74 101.51 192.72 101.93 192.10 105.04 C 192.10 109.84 182.28 109.11 184.06 104.07 C 186.17 105.56 188.75 108.54 190.58 104.94 C 189.35 101.98 184.42 102.56 184.15 98.93 Z"
     id="path3546"
     style="fill:#b53642;fill-opacity:1" />
</svg>
